
<svg version="1.0" xmlns="http://www.w3.org/2000/svg"
 width="512.000000pt" height="512.000000pt" viewBox="0 0 512.000000 512.000000"
 preserveAspectRatio="xMidYMid meet">

<g  fill="#BD292D" transform="translate(0.000000,512.000000) scale(0.100000,-0.100000)" stroke="none">
<path fill="#000000" d="M3595 5109 c-200 -27 -402 -103 -574 -216 -70 -45 -178 -148 -570
-537 -266 -265 -509 -515 -541 -557 -129 -173 -230 -419 -261 -638 -16 -115
-6 -360 20 -471 87 -377 332 -703 665 -886 l69 -38 54 58 c122 132 159 297
103 462 -21 61 -53 109 -139 209 -67 77 -118 166 -151 265 -31 91 -39 296 -16
395 25 105 94 238 169 325 116 135 869 874 931 915 274 178 631 162 882 -39
307 -246 373 -680 154 -1006 -25 -38 -175 -197 -363 -387 l-320 -322 22 -83
c46 -183 64 -437 42 -610 -4 -32 -5 -58 -3 -58 34 0 1028 990 1104 1100 106
151 184 336 225 530 24 116 24 380 0 502 -38 189 -123 386 -234 540 -75 104
-237 260 -344 331 -149 98 -320 169 -492 202 -99 20 -336 27 -432 14z"/>
<path d="M1872 5013 c-18 -9 -42 -29 -53 -45 -36 -50 -34 -90 10 -258 53 -195
57 -206 97 -236 64 -49 149 -41 202 20 48 55 48 85 -1 268 -24 90 -52 178 -61
196 -32 62 -126 89 -194 55z"/>
<path d="M810 4399 c-40 -16 -80 -60 -91 -101 -18 -70 0 -107 119 -230 159
-165 218 -194 308 -152 67 32 97 131 61 200 -22 41 -257 271 -290 283 -34 13
-74 13 -107 0z"/>
<path fill="#000000" d="M2659 3293 c-29 -32 -66 -87 -83 -123 -29 -61 -31 -72 -31 -185 0
-115 1 -123 32 -186 18 -36 62 -99 98 -140 83 -93 128 -167 165 -268 94 -257
40 -539 -145 -753 -114 -133 -867 -872 -929 -913 -274 -178 -631 -162 -882 39
-304 244 -372 675 -159 1002 22 34 180 201 366 389 l327 330 -14 39 c-48 134
-77 458 -56 621 6 44 9 82 7 84 -13 12 -157 -126 -591 -561 -515 -517 -547
-555 -633 -739 -93 -198 -125 -349 -125 -579 0 -238 34 -389 134 -595 127
-263 369 -502 631 -624 373 -174 782 -174 1158 0 184 85 221 118 744 638 478
476 547 551 622 679 42 73 115 241 138 322 48 164 62 423 32 596 -69 401 -323
761 -665 943 -42 22 -80 41 -83 41 -3 0 -29 -26 -58 -57z"/>
<path d="M171 3313 c-60 -30 -93 -111 -72 -176 22 -66 56 -86 231 -133 191
-52 245 -55 290 -18 78 66 81 163 7 232 -16 16 -75 36 -188 67 -179 49 -217
53 -268 28z"/>
<path d="M4540 2159 c-56 -23 -100 -85 -100 -141 0 -40 28 -96 61 -120 27 -21
338 -108 384 -108 71 0 145 75 145 148 0 47 -35 109 -72 128 -37 19 -343 104
-373 103 -11 0 -31 -5 -45 -10z"/>
<path d="M4015 1220 c-91 -20 -139 -115 -104 -207 6 -15 68 -85 138 -155 102
-101 135 -128 169 -137 54 -15 109 -1 144 36 51 53 60 110 29 171 -29 55 -259
279 -296 287 -17 4 -34 8 -40 9 -5 1 -24 0 -40 -4z"/>
<path d="M3030 658 c-48 -33 -70 -68 -72 -113 0 -22 18 -115 42 -205 40 -149
47 -169 80 -202 46 -46 94 -57 155 -33 54 20 86 62 92 119 7 57 -78 371 -110
404 -52 56 -130 68 -187 30z"/>
</g>
</svg>
